# xmcd CD database file
#
# Track frame offsets:
#	150
#	34692
#	54301
#	76197
#	111423
#	122058
#	144501
#	167731
#	200684
#	223688
#
# Disc length: 3228 seconds
#
# Revision: 0
# Processed by: cddbd v1.5.2PL0 Copyright (c) Steve Scherf et al.
# Submitted via: CDex 1.70beta2
#
DISCID=8c0c9a0a
DTITLE=Human Motion - Human Motion
DYEAR=2005
DGENRE=Jazz
TTITLE0=Things As They Are
TTITLE1=Places
TTITLE2=2+1-1
TTITLE3=A.G. [South]
TTITLE4=In All Ways
TTITLE5=Quiet Sky
TTITLE6=Flown
TTITLE7=Spoken
TTITLE8=Peace Of Mind
TTITLE9=November
EXTD=YEAR: 2005
EXTT0=
EXTT1=
EXTT2=
EXTT3=
EXTT4=
EXTT5=
EXTT6=
EXTT7=
EXTT8=
EXTT9=
PLAYORDER=
